<?xml version="1.0" encoding="UTF-8"?>
<!DOCTYPE svg PUBLIC "-//W3C//DTD SVG 1.1//EN" "http://www.w3.org/Graphics/SVG/1.1/DTD/svg11.dtd">
<svg xmlns="http://www.w3.org/2000/svg" version="1.1" width="388px" height="331px" style="shape-rendering:geometricPrecision; text-rendering:geometricPrecision; image-rendering:optimizeQuality; fill-rule:evenodd; clip-rule:evenodd" xmlns:xlink="http://www.w3.org/1999/xlink">
<g><path style="opacity:1" fill="#200700" d="M 378.5,2.5 C 379.5,2.5 380.5,2.5 381.5,2.5C 381.663,4.85684 381.497,7.19018 381,9.5C 373.765,31.7677 367.765,54.4344 363,77.5C 361.353,88.762 360.353,100.095 360,111.5C 357.559,120.012 355.892,128.678 355,137.5C 354.957,150.626 353.957,163.626 352,176.5C 351.667,191.167 351.333,205.833 351,220.5C 345.802,247.616 342.135,274.95 340,302.5C 337.523,307.368 334.523,307.701 331,303.5C 325.955,296.743 321.955,289.41 319,281.5C 314.584,273.667 309.918,266 305,258.5C 302.015,247.866 297.682,237.866 292,228.5C 291.654,225.424 290.988,222.424 290,219.5C 285.952,212.679 282.285,205.679 279,198.5C 276.459,189.547 273.126,180.88 269,172.5C 265.578,182.685 261.578,192.685 257,202.5C 251.64,210.219 247.64,218.552 245,227.5C 238.522,234.466 232.522,241.799 227,249.5C 219.5,256.333 212,263.167 204.5,270C 202.33,271.586 199.996,272.92 197.5,274C 192.742,279.414 188.075,284.747 183.5,290C 179.524,292.32 175.857,294.987 172.5,298C 167.833,300 163.167,302 158.5,304C 143.163,305.264 128.496,308.931 114.5,315C 106.104,316.695 97.7707,318.695 89.5,321C 88.8333,322 88.1667,323 87.5,324C 83.5813,324.75 79.9146,326.083 76.5,328C 75.1667,328.667 73.8333,328.667 72.5,328C 65.3179,321.483 58.8179,314.316 53,306.5C 46.4221,293.671 39.0888,281.338 31,269.5C 29.4379,267.043 28.4379,264.376 28,261.5C 20.1266,250.395 12.7933,239.061 6,227.5C 5.33333,222.833 5.33333,218.167 6,213.5C 7.16667,212.333 8.33333,211.167 9.5,210C 24.7904,203.684 39.1237,195.684 52.5,186C 60.204,183.992 67.8707,181.659 75.5,179C 77.8333,177.333 80.1667,175.667 82.5,174C 87.7167,172.451 92.7167,170.451 97.5,168C 111.092,164.363 124.759,160.696 138.5,157C 150.188,152.153 161.521,146.82 172.5,141C 183.706,134.047 195.373,128.047 207.5,123C 214.532,118.147 221.198,112.814 227.5,107C 222.014,100.18 215.348,94.8466 207.5,91C 202.977,87.2327 198.643,83.2327 194.5,79C 184.835,73.7401 174.835,69.0734 164.5,65C 156.945,64.2229 149.612,62.5562 142.5,60C 129.633,57.6712 116.633,57.0045 103.5,58C 97.1749,59.9965 90.8415,61.8299 84.5,63.5C 84.281,62.325 84.6143,61.325 85.5,60.5C 87.7954,59.5682 90.1287,58.7348 92.5,58C 87.5,57.6667 82.5,57.3333 77.5,57C 76.1667,56.3333 76.1667,55.6667 77.5,55C 86.5,54.6667 95.5,54.3333 104.5,54C 118.13,50.5092 131.796,47.1759 145.5,44C 177.898,41.2724 210.232,37.9391 242.5,34C 263.849,28.2896 285.515,24.2896 307.5,22C 326.771,15.4786 346.438,10.4786 366.5,7C 370.837,6.09481 374.837,4.59481 378.5,2.5 Z"/></g>
<g><path style="opacity:1" fill="#f91600" d="M 376.5,5.5 C 377.5,5.5 378.5,5.5 379.5,5.5C 379.024,9.09505 377.858,12.4284 376,15.5C 370.636,35.2932 365.636,55.2932 361,75.5C 359.831,95.7522 357.164,115.752 353,135.5C 352.971,148.959 351.971,162.292 350,175.5C 349.667,190.167 349.333,204.833 349,219.5C 343.943,247.449 339.943,275.449 337,303.5C 335.413,304.727 334.079,304.394 333,302.5C 328.284,296.401 324.618,289.735 322,282.5C 317.168,273.499 311.835,264.832 306,256.5C 304.506,249.188 302.172,242.188 299,235.5C 295.114,231.623 293.114,226.956 293,221.5C 288.621,213.699 284.621,205.699 281,197.5C 278.466,189.308 275.466,181.308 272,173.5C 271.38,169.779 270.547,166.112 269.5,162.5C 267.859,165.558 267.026,168.892 267,172.5C 265.615,173.551 264.615,174.884 264,176.5C 260.287,190.269 254.62,203.269 247,215.5C 245.907,223.009 242.241,229.009 236,233.5C 225.787,249.38 212.62,262.213 196.5,272C 193.322,276.053 189.655,279.386 185.5,282C 184.692,284.088 183.692,286.088 182.5,288C 178.524,290.32 174.857,292.987 171.5,296C 166.948,297.558 162.615,299.558 158.5,302C 142.789,303.011 127.789,306.678 113.5,313C 105.049,314.438 96.7159,316.438 88.5,319C 87.6433,319.689 86.9767,320.522 86.5,321.5C 82.3094,322.784 78.3094,324.45 74.5,326.5C 71.8122,323.978 68.9789,321.644 66,319.5C 56.8234,308.484 49.1567,296.484 43,283.5C 39.5203,281.068 37.5203,277.735 37,273.5C 33.3388,269.842 31.0055,265.509 30,260.5C 21.3727,249.512 14.0393,237.846 8,225.5C 7.33333,221.833 7.33333,218.167 8,214.5C 9.16667,213.333 10.3333,212.167 11.5,211C 27.0927,204.751 41.7593,196.751 55.5,187C 60.116,187.271 64.116,185.937 67.5,183C 69.5,182.667 71.5,182.333 73.5,182C 81.6654,176.584 90.332,172.251 99.5,169C 105.62,169.272 111.287,167.939 116.5,165C 125.167,162.667 133.833,160.333 142.5,158C 145.88,157.066 148.88,155.399 151.5,153C 157.807,152.034 163.14,149.367 167.5,145C 169.167,144.667 170.833,144.333 172.5,144C 179.044,138.93 186.044,134.596 193.5,131C 205.405,126.764 216.071,120.431 225.5,112C 227.227,110.611 228.561,108.944 229.5,107C 224.085,99.2592 217.085,93.2592 208.5,89C 204.2,85.7019 200.2,82.0352 196.5,78C 186.712,72.5382 176.712,67.5382 166.5,63C 160.842,62.2602 155.175,61.5935 149.5,61C 147.221,60.5272 145.221,59.5272 143.5,58C 138.982,57.9354 134.649,57.2687 130.5,56C 124.167,55.6667 117.833,55.3333 111.5,55C 122.218,52.2056 132.884,49.2056 143.5,46C 178.734,43.7678 213.734,40.1011 248.5,35C 265.316,30.365 282.316,27.365 299.5,26C 309.849,23.9933 319.849,20.9933 329.5,17C 344.939,14.1788 360.272,10.8455 375.5,7C 376.056,6.61742 376.389,6.11742 376.5,5.5 Z"/></g>
<g><path style="opacity:1" fill="#fab200" d="M 160.5,175.5 C 171.551,175.211 182.551,175.545 193.5,176.5C 195.554,181.552 196.054,186.886 195,192.5C 192.449,196.935 190.449,201.601 189,206.5C 180.201,217.76 173.201,230.094 168,243.5C 165.163,245.585 162.163,245.919 159,244.5C 157.48,240.625 157.146,236.625 158,232.5C 163.107,221.07 169.44,210.404 177,200.5C 178.809,196.582 180.309,192.582 181.5,188.5C 174.492,188.334 167.492,188.5 160.5,189C 158.167,190 155.833,191 153.5,192C 141.747,192.269 130.08,192.936 118.5,194C 114.575,189.962 114.575,185.962 118.5,182C 120.788,181.178 123.122,180.511 125.5,180C 133.833,179.667 142.167,179.333 150.5,179C 153.748,177.54 157.081,176.374 160.5,175.5 Z"/></g>
<g><path style="opacity:1" fill="#fa5c00" d="M 160.5,175.5 C 170.992,174.341 181.659,174.175 192.5,175C 193.056,175.383 193.389,175.883 193.5,176.5C 182.551,175.545 171.551,175.211 160.5,175.5 Z"/></g>
<g><path style="opacity:1" fill="#fab100" d="M 235.5,132.5 C 242.494,132.161 245.827,135.494 245.5,142.5C 243.697,154.353 241.197,166.02 238,177.5C 237.667,182.167 237.333,186.833 237,191.5C 234.89,194.492 233.557,197.825 233,201.5C 226.359,207.811 222.192,206.478 220.5,197.5C 220.896,193.581 222.063,189.914 224,186.5C 224.333,182.5 224.667,178.5 225,174.5C 226.908,165.79 228.741,157.124 230.5,148.5C 216.413,151.375 202.246,154.042 188,156.5C 180.426,156.577 177.759,152.91 180,145.5C 186.737,143.225 193.571,141.058 200.5,139C 212.669,138.794 224.336,136.628 235.5,132.5 Z"/></g>
<g><path style="opacity:1" fill="#fab100" d="M 274.5,95.5 C 289.634,92.8014 295.967,98.968 293.5,114C 293.299,126.944 290.799,139.444 286,151.5C 283.441,154.349 280.274,155.183 276.5,154C 273.903,151.683 273.07,148.85 274,145.5C 278.331,133.858 280.497,121.858 280.5,109.5C 275.314,109.462 270.647,110.962 266.5,114C 261.156,115.117 255.989,116.617 251,118.5C 243.446,115.352 242.613,110.852 248.5,105C 253.044,103.264 257.71,101.93 262.5,101C 266.475,98.7936 270.475,96.9603 274.5,95.5 Z"/></g>
<g><path style="opacity:1" fill="#fa5700" d="M 306.5,63.5 C 309.287,62.5233 312.287,62.19 315.5,62.5C 315.832,103.67 315.499,144.67 314.5,185.5C 314.5,144.833 314.5,104.167 314.5,63.5C 311.833,63.5 309.167,63.5 306.5,63.5 Z"/></g>
<g><path style="opacity:1" fill="#fab200" d="M 314.5,185.5 C 315.499,144.67 315.832,103.67 315.5,62.5C 312.287,62.19 309.287,62.5233 306.5,63.5C 288.062,65.6159 269.728,68.7826 251.5,73C 233.887,75.1131 216.22,75.7798 198.5,75C 194.244,70.6146 194.577,66.6146 199.5,63C 218.547,62.3266 237.547,60.9933 256.5,59C 261.097,57.4141 265.764,56.0808 270.5,55C 283.301,53.4765 295.968,51.4765 308.5,49C 315.564,47.2548 321.731,48.7548 327,53.5C 327.333,55.5 327.667,57.5 328,59.5C 328.667,102.833 328.667,146.167 328,189.5C 324.058,201.058 320.391,212.725 317,224.5C 312.752,228.842 309.085,228.508 306,223.5C 305.333,220.5 305.333,217.5 306,214.5C 309.131,204.938 311.964,195.271 314.5,185.5 Z"/></g>
<g><path style="opacity:1" fill="#fab100" d="M 126.5,225.5 C 127.434,224.432 127.768,223.099 127.5,221.5C 124.15,221.335 120.817,221.502 117.5,222C 114.994,223.299 112.327,224.299 109.5,225C 95.5165,226.327 81.5165,227.66 67.5,229C 64.6907,230.093 62.024,231.26 59.5,232.5C 52.5779,232.231 45.9113,233.065 39.5,235C 35.3541,230.375 35.6875,226.041 40.5,222C 45.5771,219.905 50.9104,218.905 56.5,219C 58.9494,218.275 61.2827,217.275 63.5,216C 77.9191,215.027 92.2524,213.693 106.5,212C 115.491,208.698 124.824,207.365 134.5,208C 136.624,209.122 138.457,210.622 140,212.5C 140.667,217.833 140.667,223.167 140,228.5C 135.546,237.983 131.546,247.65 128,257.5C 122.364,266.48 116.698,275.48 111,284.5C 101.962,290.305 97.6285,287.972 98,277.5C 103.333,270.167 108.667,262.833 114,255.5C 115.23,249.632 117.563,244.299 121,239.5C 123.099,234.964 124.932,230.297 126.5,225.5 Z"/></g>
<g><path style="opacity:1" fill="#fa4100" d="M 126.5,225.5 C 126.5,224.5 126.5,223.5 126.5,222.5C 104.334,226.572 82.001,229.905 59.5,232.5C 62.024,231.26 64.6907,230.093 67.5,229C 81.5165,227.66 95.5165,226.327 109.5,225C 112.327,224.299 114.994,223.299 117.5,222C 120.817,221.502 124.15,221.335 127.5,221.5C 127.768,223.099 127.434,224.432 126.5,225.5 Z"/></g>
</svg>
